<svg xmlns="http://www.w3.org/2000/svg" width="600" height="400" viewBox="0 0 600 400">
  <rect width="600" height="400" fill="#0c1220"/>
  <rect x="20" y="20" width="200" height="360" rx="12" fill="#111827" stroke="#1e3a5f" stroke-width="1"/>
  <rect x="240" y="20" width="340" height="360" rx="12" fill="#111827" stroke="#1e3a5f" stroke-width="1"/>
  <!-- sidebar -->
  <rect x="40" y="40" width="160" height="20" rx="4" fill="#3b82f6" opacity="0.4"/>
  <rect x="40" y="75" width="160" height="40" rx="6" fill="#1a2535"/>
  <rect x="40" y="125" width="160" height="40" rx="6" fill="#1a2535"/>
  <rect x="40" y="175" width="160" height="40" rx="6" fill="#1e3a5f" opacity="0.5"/>
  <rect x="40" y="225" width="160" height="40" rx="6" fill="#1a2535"/>
  <!-- main content -->
  <rect x="260" y="40" width="300" height="24" rx="6" fill="#1e3a5f"/>
  <rect x="260" y="80" width="200" height="14" rx="4" fill="#1e3a5f" opacity="0.6"/>
  <!-- chart area -->
  <rect x="260" y="110" width="300" height="140" rx="8" fill="#1a2535"/>
  <polyline points="290,210 340,180 370,195 400,160 430,170 460,140 490,155 520,120" fill="none" stroke="#3b82f6" stroke-width="2" opacity="0.5"/>
  <polyline points="290,190 340,170 370,180 400,150 430,160 460,130 490,145 520,110" fill="none" stroke="#8b5cf6" stroke-width="2" opacity="0.3"/>
  <rect x="260" y="270" width="140" height="80" rx="8" fill="#1a2535"/>
  <rect x="420" y="270" width="140" height="80" rx="8" fill="#1a2535"/>
  <rect x="275" y="285" width="50" height="8" rx="4" fill="#94a3b8" opacity="0.3"/>
  <rect x="275" y="300" width="30" height="8" rx="4" fill="#3b82f6" opacity="0.4"/>
  <rect x="435" y="285" width="50" height="8" rx="4" fill="#94a3b8" opacity="0.3"/>
  <rect x="435" y="300" width="30" height="8" rx="4" fill="#8b5cf6" opacity="0.4"/>
</svg>
