<svg xmlns="http://www.w3.org/2000/svg" width="600" height="400" viewBox="0 0 600 400">
  <rect width="600" height="400" fill="#0c1220"/>
  <rect x="20" y="20" width="560" height="50" rx="10" fill="#111827" stroke="#1e3a5f" stroke-width="1"/>
  <rect x="40" y="32" width="100" height="26" rx="6" fill="#3b82f6" opacity="0.3"/>
  <rect x="155" y="32" width="80" height="26" rx="6" fill="#1a2535"/>
  <rect x="250" y="32" width="80" height="26" rx="6" fill="#1a2535"/>
  <circle cx="530" cy="45" r="8" fill="#1a2535"/>
  <circle cx="555" cy="45" r="8" fill="#1a2535"/>
  <!-- kanban board -->
  <rect x="20" y="85" width="180" height="295" rx="10" fill="#111827"/>
  <rect x="210" y="85" width="180" height="295" rx="10" fill="#111827"/>
  <rect x="400" y="85" width="180" height="295" rx="10" fill="#111827"/>
  <!-- column headers -->
  <rect x="35" y="100" width="150" height="20" rx="6" fill="#3b82f6" opacity="0.3"/>
  <rect x="225" y="100" width="150" height="20" rx="6" fill="#8b5cf6" opacity="0.3"/>
  <rect x="415" y="100" width="150" height="20" rx="6" fill="#06b6d4" opacity="0.3"/>
  <!-- cards -->
  <rect x="35" y="135" width="150" height="60" rx="8" fill="#1a2535"/>
  <rect x="45" y="145" width="130" height="8" rx="4" fill="#94a3b8" opacity="0.3"/>
  <rect x="45" y="160" width="80" height="6" rx="3" fill="#94a3b8" opacity="0.2"/>
  <rect x="45" y="175" width="40" height="12" rx="4" fill="#3b82f6" opacity="0.3"/>
  <rect x="35" y="205" width="150" height="60" rx="8" fill="#1a2535"/>
  <rect x="45" y="215" width="130" height="8" rx="4" fill="#94a3b8" opacity="0.3"/>
  <rect x="45" y="230" width="100" height="6" rx="3" fill="#94a3b8" opacity="0.2"/>
  <rect x="45" y="245" width="40" height="12" rx="4" fill="#f59e0b" opacity="0.3"/>
  <rect x="225" y="135" width="150" height="60" rx="8" fill="#1a2535"/>
  <rect x="235" y="145" width="130" height="8" rx="4" fill="#94a3b8" opacity="0.3"/>
  <rect x="235" y="160" width="60" height="6" rx="3" fill="#94a3b8" opacity="0.2"/>
  <rect x="235" y="175" width="40" height="12" rx="4" fill="#8b5cf6" opacity="0.3"/>
  <rect x="225" y="205" width="150" height="60" rx="8" fill="#1a2535"/>
  <rect x="235" y="215" width="110" height="8" rx="4" fill="#94a3b8" opacity="0.3"/>
  <rect x="235" y="230" width="80" height="6" rx="3" fill="#94a3b8" opacity="0.2"/>
  <rect x="235" y="245" width="40" height="12" rx="4" fill="#14b8a6" opacity="0.3"/>
  <rect x="415" y="135" width="150" height="60" rx="8" fill="#1a2535"/>
  <rect x="425" y="145" width="130" height="8" rx="4" fill="#94a3b8" opacity="0.3"/>
  <rect x="425" y="160" width="70" height="6" rx="3" fill="#94a3b8" opacity="0.2"/>
  <rect x="425" y="175" width="40" height="12" rx="4" fill="#06b6d4" opacity="0.3"/>
</svg>
