<svg xmlns="http://www.w3.org/2000/svg" width="600" height="400" viewBox="0 0 600 400">
  <defs>
    <linearGradient id="g1" x1="0%" y1="0%" x2="100%" y2="100%">
      <stop offset="0%" style="stop-color:#3b82f6;stop-opacity:0.15"/>
      <stop offset="100%" style="stop-color:#8b5cf6;stop-opacity:0.05"/>
    </linearGradient>
  </defs>
  <rect width="600" height="400" fill="#0c1220"/>
  <rect x="0" y="0" width="600" height="400" fill="url(#g1)"/>
  <!-- header -->
  <rect x="40" y="30" width="520" height="40" rx="8" fill="#111827" stroke="#1e3a5f" stroke-width="0.5"/>
  <rect x="55" y="42" width="60" height="16" rx="4" fill="#3b82f6" opacity="0.4"/>
  <rect x="130" y="42" width="60" height="16" rx="4" fill="#1a2535"/>
  <rect x="205" y="42" width="60" height="16" rx="4" fill="#1a2535"/>
  <rect x="500" y="38" width="45" height="24" rx="6" fill="#3b82f6" opacity="0.5"/>
  <!-- hero section -->
  <rect x="40" y="100" width="300" height="24" rx="6" fill="#94a3b8" opacity="0.3"/>
  <rect x="40" y="130" width="250" height="16" rx="4" fill="#94a3b8" opacity="0.2"/>
  <rect x="40" y="155" width="200" height="16" rx="4" fill="#94a3b8" opacity="0.15"/>
  <rect x="40" y="185" width="140" height="40" rx="8" fill="#3b82f6" opacity="0.4"/>
  <!-- decorative glass elements -->
  <rect x="420" y="100" width="140" height="260" rx="16" fill="#111827" stroke="#1e3a5f" stroke-width="0.5" opacity="0.5"/>
  <circle cx="490" cy="160" r="30" fill="#3b82f6" opacity="0.08"/>
  <circle cx="500" cy="200" r="20" fill="#8b5cf6" opacity="0.06"/>
  <circle cx="480" cy="250" r="15" fill="#06b6d4" opacity="0.08"/>
  <rect x="430" y="290" width="120" height="16" rx="4" fill="#94a3b8" opacity="0.2"/>
  <rect x="430" y="310" width="80" height="8" rx="4" fill="#94a3b8" opacity="0.15"/>
  <!-- features -->
  <rect x="40" y="260" width="170" height="100" rx="10" fill="#111827" stroke="#1e3a5f" stroke-width="0.5"/>
  <rect x="230" y="260" width="170" height="100" rx="10" fill="#111827" stroke="#1e3a5f" stroke-width="0.5"/>
  <rect x="60" y="275" width="130" height="10" rx="4" fill="#94a3b8" opacity="0.3"/>
  <rect x="60" y="292" width="100" height="8" rx="4" fill="#94a3b8" opacity="0.2"/>
  <rect x="60" y="310" width="40" height="20" rx="4" fill="#3b82f6" opacity="0.3"/>
  <rect x="250" y="275" width="130" height="10" rx="4" fill="#94a3b8" opacity="0.3"/>
  <rect x="250" y="292" width="100" height="8" rx="4" fill="#94a3b8" opacity="0.2"/>
  <rect x="250" y="310" width="40" height="20" rx="4" fill="#8b5cf6" opacity="0.3"/>
</svg>
