<svg xmlns="http://www.w3.org/2000/svg" width="600" height="400" viewBox="0 0 600 400">
  <rect width="600" height="400" fill="#0c1220"/>
  <rect x="30" y="20" width="540" height="360" rx="12" fill="#111827" stroke="#1e3a5f" stroke-width="1"/>
  <rect x="30" y="20" width="540" height="60" rx="12" fill="#1a2535"/>
  <rect x="30" y="68" width="540" height="12" fill="#1a2535"/>
  <circle cx="60" cy="50" r="8" fill="#3b82f6" opacity="0.5"/>
  <rect x="80" y="42" width="60" height="16" rx="4" fill="#1e3a5f"/>
  <rect x="80" y="42" width="40" height="16" rx="4" fill="#3b82f6" opacity="0.4"/>
  <rect x="460" y="42" width="100" height="16" rx="4" fill="#1e3a5f"/>
  <rect x="110" y="100" width="160" height="100" rx="8" fill="#1a2535"/>
  <rect x="290" y="100" width="160" height="100" rx="8" fill="#1a2535"/>
  <rect x="110" y="220" width="160" height="100" rx="8" fill="#1a2535"/>
  <rect x="290" y="220" width="160" height="100" rx="8" fill="#1a2535"/>
  <rect x="130" y="120" width="120" height="12" rx="4" fill="#94a3b8" opacity="0.3"/>
  <rect x="130" y="140" width="80" height="8" rx="4" fill="#94a3b8" opacity="0.2"/>
  <rect x="130" y="160" width="60" height="20" rx="4" fill="#3b82f6" opacity="0.3"/>
  <rect x="310" y="120" width="120" height="12" rx="4" fill="#94a3b8" opacity="0.3"/>
  <rect x="310" y="140" width="80" height="8" rx="4" fill="#94a3b8" opacity="0.2"/>
  <rect x="310" y="160" width="60" height="20" rx="4" fill="#8b5cf6" opacity="0.3"/>
  <!-- mock cards -->
  <rect x="130" y="240" width="120" height="12" rx="4" fill="#94a3b8" opacity="0.3"/>
  <rect x="130" y="260" width="80" height="8" rx="4" fill="#94a3b8" opacity="0.2"/>
  <rect x="130" y="280" width="60" height="20" rx="4" fill="#06b6d4" opacity="0.3"/>
  <rect x="310" y="240" width="120" height="12" rx="4" fill="#94a3b8" opacity="0.3"/>
  <rect x="310" y="260" width="80" height="8" rx="4" fill="#94a3b8" opacity="0.2"/>
  <rect x="310" y="280" width="60" height="20" rx="4" fill="#14b8a6" opacity="0.3"/>
</svg>
