<svg xmlns="http://www.w3.org/2000/svg" width="600" height="400" viewBox="0 0 600 400">
  <rect width="600" height="400" fill="#0c1220"/>
  <rect x="30" y="30" width="540" height="340" rx="12" fill="#111827" stroke="#1e3a5f" stroke-width="1"/>
  <rect x="50" y="50" width="500" height="30" rx="6" fill="#1a2535"/>
  <circle cx="70" cy="65" r="5" fill="#22c55e"/>
  <rect x="90" y="57" width="200" height="16" rx="4" fill="#1a2535"/>
  <rect x="90" y="57" width="120" height="16" rx="4" fill="#22c55e" opacity="0.3"/>
  <rect x="50" y="100" width="500" height="80" rx="8" fill="#1a2535"/>
  <rect x="70" y="115" width="460" height="12" rx="4" fill="#1e3a5f" opacity="0.5"/>
  <rect x="70" y="135" width="380" height="12" rx="4" fill="#1e3a5f" opacity="0.4"/>
  <rect x="70" y="155" width="240" height="12" rx="4" fill="#1e3a5f" opacity="0.3"/>
  <!-- scanning animation -->
  <rect x="50" y="200" width="240" height="120" rx="8" fill="#1a2535"/>
  <rect x="310" y="200" width="240" height="120" rx="8" fill="#1a2535"/>
  <!-- radar -->
  <circle cx="170" cy="260" r="40" fill="none" stroke="#22c55e" stroke-width="1" opacity="0.3"/>
  <circle cx="170" cy="260" r="25" fill="none" stroke="#22c55e" stroke-width="1" opacity="0.2"/>
  <line x1="170" y1="260" x2="210" y2="240" stroke="#22c55e" stroke-width="2" opacity="0.5"/>
  <rect x="330" y="215" width="200" height="12" rx="4" fill="#1e3a5f" opacity="0.5"/>
  <rect x="330" y="235" width="160" height="12" rx="4" fill="#1e3a5f" opacity="0.4"/>
  <rect x="330" y="255" width="100" height="12" rx="4" fill="#ef4444" opacity="0.3"/>
  <rect x="330" y="280" width="180" height="12" rx="4" fill="#1e3a5f" opacity="0.3"/>
</svg>
