<svg xmlns="http://www.w3.org/2000/svg" width="600" height="400" viewBox="0 0 600 400">
  <rect width="600" height="400" fill="#0c1220"/>
  <rect x="40" y="30" width="520" height="30" rx="6" fill="#1a2535"/>
  <circle cx="60" cy="45" r="6" fill="#ef4444"/>
  <circle cx="80" cy="45" r="6" fill="#f59e0b"/>
  <circle cx="100" cy="45" r="6" fill="#22c55e"/>
  <rect x="40" y="80" width="280" height="20" rx="4" fill="#1e3a5f" opacity="0.6"/>
  <rect x="40" y="110" width="250" height="14" rx="4" fill="#1e3a5f" opacity="0.4"/>
  <rect x="40" y="140" width="300" height="14" rx="4" fill="#1e3a5f" opacity="0.3"/>
  <rect x="40" y="180" width="520" height="140" rx="8" fill="#1a2535"/>
  <rect x="60" y="200" width="120" height="30" rx="6" fill="#3b82f6" opacity="0.3"/>
  <rect x="60" y="240" width="80" height="20" rx="4" fill="#8b5cf6" opacity="0.3"/>
  <rect x="60" y="270" width="200" height="12" rx="4" fill="#94a3b8" opacity="0.2"/>
  <rect x="40" y="340" width="120" height="36" rx="6" fill="#3b82f6" opacity="0.4"/>
  <circle cx="420" cy="200" r="60" fill="#3b82f6" opacity="0.1"/>
  <circle cx="460" cy="220" r="40" fill="#8b5cf6" opacity="0.1"/>
  <circle cx="500" cy="280" r="30" fill="#06b6d4" opacity="0.1"/>
</svg>
